<?xml version="1.0" encoding="UTF-8" ?>
<!DOCTYPE svg PUBLIC "-//W3C//DTD SVG 1.1//EN" "http://www.w3.org/Graphics/SVG/1.1/DTD/svg11.dtd">
<svg width="1191pt" height="510pt" viewBox="0 0 1191 510" version="1.1" xmlns="http://www.w3.org/2000/svg">
<g id="#c5e093ff">
<path fill="#c5e093" opacity="1.00" d=" M 309.56 29.33 C 316.34 27.59 323.48 27.95 330.21 29.75 C 345.27 32.66 358.64 42.41 366.62 55.42 C 373.99 66.91 376.54 81.18 374.25 94.58 C 380.94 94.36 387.36 96.58 393.98 96.87 C 399.89 94.73 405.84 92.40 412.24 92.26 C 413.90 87.03 415.82 81.74 419.32 77.42 C 427.04 67.61 439.37 61.02 452.05 61.98 C 462.55 61.73 472.27 67.24 479.58 74.38 C 485.39 80.29 488.25 88.18 490.26 96.05 C 494.59 96.24 499.23 95.60 503.23 97.68 C 505.30 98.47 507.37 100.17 509.70 99.51 C 520.61 97.02 532.68 96.99 542.82 102.24 C 545.26 103.43 547.41 105.29 550.08 105.99 C 555.02 104.69 559.60 102.08 564.81 101.72 C 575.81 99.28 587.41 100.11 597.92 104.20 C 609.66 92.94 622.30 82.41 636.66 74.65 C 664.12 59.03 695.18 50.27 726.55 47.45 C 744.91 45.33 763.47 46.66 781.72 49.22 C 795.10 52.02 808.53 55.23 821.03 60.91 C 823.91 62.10 826.76 63.60 829.89 64.03 C 833.36 62.20 836.21 59.30 839.96 57.93 C 848.35 53.99 858.27 52.97 867.11 56.04 C 873.58 58.20 879.64 61.71 884.49 66.53 C 887.73 69.83 889.76 74.04 892.52 77.70 C 895.13 78.18 897.69 76.99 900.28 76.68 C 905.15 75.70 910.12 76.22 915.04 76.35 C 917.05 76.60 918.52 75.05 919.97 73.90 C 940.55 53.32 972.98 45.25 1000.70 54.35 C 1007.26 56.24 1013.58 58.95 1019.32 62.66 C 1022.04 64.17 1024.62 66.53 1027.94 66.41 C 1035.67 66.52 1043.41 65.79 1051.13 66.17 C 1057.01 66.47 1061.36 71.34 1063.99 76.17 C 1066.18 80.08 1065.68 84.70 1065.73 89.00 C 1065.59 109.23 1065.17 129.46 1065.20 149.69 C 1075.44 151.73 1084.88 156.68 1093.37 162.66 C 1106.25 171.55 1116.27 184.44 1122.02 198.98 C 1127.80 212.38 1128.67 227.28 1127.25 241.65 C 1131.60 242.32 1136.27 243.32 1139.48 246.58 C 1142.68 249.95 1144.70 254.21 1146.97 258.21 C 1151.50 266.10 1155.69 274.17 1159.92 282.22 C 1162.45 286.88 1162.04 292.69 1159.24 297.14 C 1153.09 306.46 1145.76 314.93 1138.20 323.12 C 1132.10 330.36 1125.17 336.82 1118.36 343.37 C 1113.79 347.12 1114.33 353.48 1113.48 358.75 C 1109.83 380.41 1102.94 401.99 1089.98 419.96 C 1077.46 437.98 1057.85 450.88 1036.34 455.22 C 1024.28 457.04 1011.94 458.47 999.82 456.26 C 984.99 454.62 970.68 448.37 959.43 438.58 C 957.75 436.83 955.22 436.94 953.01 436.99 C 944.34 437.44 935.71 438.77 927.03 438.94 C 919.98 438.01 912.79 437.99 905.86 436.27 C 889.06 432.50 873.00 424.46 860.97 411.99 C 857.50 408.50 854.87 404.22 851.01 401.12 C 845.39 405.14 840.46 410.23 833.98 412.94 C 818.23 419.96 799.38 418.63 784.22 410.68 C 774.29 405.55 767.06 396.60 761.70 387.00 C 757.00 387.49 752.43 388.71 747.78 389.48 C 740.09 390.32 732.29 390.13 724.61 389.32 C 715.33 387.73 706.38 384.33 698.11 379.87 C 692.18 376.70 687.18 372.17 681.79 368.22 C 679.56 368.51 677.55 369.64 675.53 370.56 C 661.50 377.54 647.11 383.77 632.56 389.59 C 627.97 391.29 623.13 392.45 618.87 394.91 C 617.41 397.12 617.04 399.83 616.20 402.29 C 610.86 420.57 602.08 438.04 588.99 452.01 C 575.70 465.68 557.81 474.83 538.92 477.49 C 531.65 478.28 524.34 478.82 517.04 478.20 C 499.91 477.92 482.54 472.73 469.09 461.89 C 459.75 454.46 453.27 443.90 449.47 432.68 C 442.52 435.60 437.15 441.30 430.09 444.02 C 420.69 448.44 410.29 450.16 400.02 451.01 C 386.66 450.86 373.30 448.32 360.99 443.02 C 343.08 434.98 327.22 422.17 316.09 405.95 C 315.06 404.53 314.05 403.09 312.81 401.86 C 308.93 402.75 305.90 405.59 302.30 407.15 C 288.90 413.41 273.63 415.37 259.04 413.03 C 239.40 409.77 221.56 398.15 209.67 382.31 C 205.53 377.16 203.06 370.94 199.24 365.57 C 191.35 374.56 182.70 382.96 172.72 389.62 C 155.09 401.11 134.73 408.00 113.99 411.05 C 106.37 412.10 98.77 413.50 91.06 413.59 C 76.87 413.84 62.60 414.33 48.49 412.57 C 42.44 411.98 36.87 408.15 34.20 402.70 C 32.95 399.42 32.15 395.93 32.27 392.41 C 33.17 371.63 32.43 350.80 33.59 330.04 C 33.78 305.77 34.17 281.52 34.48 257.26 C 35.11 239.20 34.47 221.10 35.56 203.05 C 35.67 189.69 35.83 176.33 36.03 162.97 C 35.98 156.80 39.46 150.84 44.97 148.01 C 50.72 144.48 57.73 146.39 64.07 146.31 C 69.29 136.35 78.02 127.30 89.54 125.39 C 94.55 123.92 99.51 127.59 104.38 126.60 C 106.93 122.26 108.22 117.24 111.06 113.02 C 116.64 104.53 123.01 96.23 131.57 90.53 C 135.61 87.88 139.68 85.20 144.15 83.31 C 150.22 81.02 156.61 79.69 163.04 78.88 C 170.35 78.16 177.70 79.48 184.74 81.37 C 187.98 82.22 191.87 84.23 194.93 81.86 C 198.25 79.50 202.00 77.84 205.99 77.04 C 220.10 74.73 233.95 71.01 248.03 68.53 C 253.76 67.99 258.80 71.35 263.46 74.22 C 267.57 51.68 286.72 32.50 309.56 29.33 M 1019.98 76.13 C 1014.37 76.54 1008.39 75.70 1003.20 78.35 C 1000.59 79.99 997.61 78.69 994.90 78.14 C 983.47 75.27 971.23 79.10 962.03 86.08 C 952.43 93.51 946.31 104.45 942.59 115.84 C 940.22 108.95 937.13 102.20 932.31 96.68 C 926.46 89.47 917.36 84.77 907.99 85.03 C 898.66 85.15 889.67 88.58 882.07 93.88 C 881.32 91.64 880.53 89.42 879.79 87.18 C 866.62 89.48 853.69 92.92 840.59 95.53 C 837.64 96.19 834.58 96.58 831.83 97.87 C 831.05 99.40 830.60 101.07 830.07 102.69 C 826.75 103.27 823.40 103.71 820.05 103.95 C 807.79 104.81 795.56 106.06 783.31 106.94 C 782.66 105.42 782.02 103.89 781.39 102.37 C 765.55 103.48 749.78 105.46 733.96 106.70 C 731.79 106.92 729.62 107.11 727.53 107.72 C 726.00 110.16 726.30 113.20 726.15 115.96 C 726.18 123.31 726.13 130.67 725.87 138.02 C 720.88 122.79 709.46 108.83 693.56 104.51 C 684.00 101.61 673.83 103.71 664.98 107.84 C 664.13 106.64 663.29 105.44 662.46 104.25 C 645.96 105.67 629.50 107.42 613.04 109.13 C 612.29 117.12 613.13 125.17 612.08 133.13 C 609.33 128.53 607.06 123.56 603.36 119.62 C 598.75 114.69 592.58 111.04 585.81 110.25 C 573.16 108.92 559.47 110.12 548.82 117.71 C 544.64 114.23 540.44 110.48 535.16 108.81 C 525.08 105.34 514.08 107.15 504.34 110.85 C 504.14 108.92 503.94 107.00 503.75 105.08 C 492.15 104.60 480.60 106.04 469.00 106.00 C 463.74 105.97 458.47 106.21 453.26 106.99 C 451.44 121.89 450.32 136.86 448.63 151.77 C 447.59 161.22 447.15 170.75 445.39 180.11 C 444.96 152.98 445.22 125.84 444.92 98.71 C 437.36 98.22 429.91 99.83 422.41 100.47 C 414.52 101.50 406.52 101.79 398.72 103.45 C 398.38 105.19 398.04 106.92 397.71 108.66 C 388.52 105.26 378.58 102.58 368.76 104.73 C 352.93 108.26 339.23 119.22 331.21 133.19 C 324.23 145.42 322.40 160.19 325.01 173.93 C 326.44 181.53 330.21 188.37 333.78 195.15 C 325.79 190.64 318.37 185.21 310.62 180.33 C 308.05 178.65 305.32 177.09 303.25 174.79 C 304.09 171.18 306.03 167.96 307.61 164.64 C 316.01 146.74 324.85 129.06 333.18 111.14 C 335.80 105.20 339.27 99.63 341.18 93.39 C 324.92 88.47 308.64 83.64 292.40 78.66 C 289.99 77.98 287.55 77.42 285.12 76.86 C 281.87 85.50 279.17 94.34 276.06 103.03 C 272.34 113.55 269.40 124.36 264.98 134.62 C 262.92 127.35 262.07 119.82 260.65 112.42 C 258.68 101.08 256.64 89.75 254.78 78.39 C 236.42 81.68 218.29 86.07 199.94 89.38 C 199.75 98.94 202.14 108.27 203.25 117.72 C 210.23 166.83 217.22 215.94 224.25 265.05 C 230.29 264.43 236.39 263.81 242.28 262.26 C 236.36 264.97 231.26 269.17 226.28 273.31 C 222.20 276.59 219.81 282.02 214.45 283.55 C 214.29 274.71 214.18 265.80 211.80 257.22 C 206.37 230.11 187.63 206.49 163.24 193.80 C 155.95 190.20 148.49 186.90 140.79 184.26 C 130.84 180.82 120.27 179.99 110.07 177.57 C 109.49 173.36 109.47 168.98 107.95 164.96 C 106.21 161.58 103.19 158.08 99.08 158.05 C 94.52 157.71 89.93 157.63 85.42 156.86 C 77.66 155.61 69.77 156.23 61.96 155.59 C 58.04 155.44 53.64 154.71 50.21 157.14 C 48.07 158.61 45.80 160.50 45.37 163.21 C 44.59 168.09 45.03 173.05 44.91 177.97 C 43.55 213.62 44.20 249.31 43.54 284.97 C 42.53 297.95 43.25 310.98 42.37 323.97 C 41.95 346.33 42.06 368.70 41.75 391.06 C 41.33 396.07 44.30 400.86 48.62 403.23 C 51.29 404.18 54.20 404.03 56.99 404.16 C 71.35 404.32 85.73 404.63 100.07 403.86 C 108.37 402.65 116.76 401.85 124.92 399.81 C 138.57 396.23 152.33 392.04 164.28 384.31 C 173.23 378.50 181.99 372.09 188.81 363.78 C 193.59 358.34 196.95 351.89 201.13 346.01 C 201.69 346.05 202.82 346.12 203.38 346.16 C 206.60 363.32 216.04 379.41 229.84 390.18 C 252.58 409.24 288.89 409.87 311.79 390.79 C 317.89 385.58 323.95 380.03 328.01 373.03 C 329.71 370.15 331.66 367.42 333.85 364.89 C 333.34 369.27 332.06 373.56 331.99 377.98 C 332.53 381.71 334.74 385.11 337.42 387.69 C 340.52 389.66 344.41 389.49 347.95 389.69 C 361.33 389.66 374.70 389.59 388.08 389.75 C 393.05 390.28 397.03 386.44 399.43 382.52 C 400.96 377.17 399.87 371.49 400.06 366.00 C 400.17 345.39 399.52 324.77 400.29 304.17 C 402.11 304.17 403.93 304.16 405.75 304.15 C 406.69 314.42 405.86 324.72 405.90 335.01 C 405.93 349.35 404.12 363.63 404.15 377.98 C 403.76 383.04 408.32 386.83 412.57 388.56 C 417.35 389.29 422.19 388.14 427.00 388.31 C 439.70 388.45 452.40 388.21 465.10 388.40 C 462.04 396.94 457.71 405.16 456.63 414.29 C 456.03 427.16 460.49 440.24 469.27 449.74 C 479.62 461.19 494.83 466.90 509.87 468.67 C 520.17 470.36 530.80 470.34 540.98 467.88 C 557.14 464.82 572.66 457.03 583.63 444.60 C 594.85 431.94 602.81 416.56 607.39 400.31 C 608.60 396.47 609.17 392.41 610.87 388.74 C 612.43 386.79 615.07 386.23 617.28 385.31 C 630.84 380.81 644.05 375.32 656.94 369.17 C 664.02 366.38 670.74 362.82 677.58 359.53 C 679.72 358.74 682.22 357.13 684.46 358.46 C 688.37 360.76 691.18 364.47 694.84 367.11 C 702.52 372.83 711.36 377.05 720.69 379.24 C 726.21 380.15 731.80 380.66 737.38 381.14 C 753.26 380.67 768.92 375.79 782.32 367.26 C 791.41 360.85 799.87 353.59 807.76 345.76 C 809.12 344.90 810.49 342.40 812.28 343.61 C 813.47 350.10 810.26 356.33 810.32 362.76 C 811.65 367.50 815.33 372.98 820.94 372.39 C 834.63 372.40 848.33 372.26 862.02 372.38 C 868.46 372.48 876.11 374.38 881.30 369.35 C 884.22 367.18 884.03 363.27 884.07 360.02 C 883.80 344.01 883.92 328.00 883.69 312.00 C 883.77 301.39 883.52 290.75 884.37 280.16 C 886.76 280.17 889.16 280.17 891.57 280.17 C 892.85 291.09 891.79 302.07 891.73 313.03 C 890.84 329.37 890.04 345.72 889.95 362.09 C 889.51 367.92 895.31 372.86 900.95 372.42 C 918.65 372.38 936.37 372.20 954.08 372.43 C 952.35 377.50 950.22 382.49 949.54 387.84 C 948.12 396.84 949.61 406.08 952.58 414.63 C 958.06 427.34 969.24 436.89 981.88 442.11 C 996.32 448.14 1012.40 449.13 1027.81 447.45 C 1043.69 445.43 1059.15 439.00 1070.88 427.94 C 1079.75 420.47 1086.26 410.65 1091.30 400.31 C 1099.79 383.39 1103.65 364.62 1106.05 345.97 C 1106.30 341.82 1109.55 339.00 1112.46 336.46 C 1126.28 324.22 1138.51 310.27 1149.50 295.46 C 1152.04 292.26 1152.65 287.79 1150.80 284.11 C 1146.04 273.85 1139.80 264.37 1134.66 254.30 C 1130.79 254.02 1126.88 253.52 1123.02 254.08 C 1120.88 254.20 1119.91 256.36 1118.70 257.79 C 1115.62 262.27 1112.58 266.87 1108.42 270.44 C 1107.53 261.98 1108.18 253.48 1108.05 245.00 C 1107.92 239.75 1108.68 234.42 1107.64 229.24 C 1106.32 225.61 1103.18 222.06 1099.08 221.94 C 1094.72 221.55 1090.35 221.90 1085.99 222.00 C 1078.62 222.32 1071.19 221.83 1063.88 222.97 C 1059.26 223.72 1054.57 223.66 1049.92 223.95 C 1045.87 223.94 1043.89 228.10 1040.78 230.01 C 1037.65 229.76 1034.87 228.17 1031.93 227.28 C 1034.16 227.48 1036.12 226.08 1037.85 224.82 C 1044.07 219.84 1048.88 213.15 1051.72 205.71 C 1055.18 196.92 1055.70 187.34 1055.85 178.00 C 1055.94 158.33 1055.95 138.67 1056.09 119.00 C 1055.87 104.33 1056.73 89.65 1056.10 74.99 C 1044.04 74.53 1032.03 76.08 1019.98 76.13 Z" />
<path fill="#c5e093" opacity="1.00" d=" M 993.47 123.46 C 997.93 121.33 1004.03 123.53 1005.58 128.37 C 1006.97 132.78 1006.33 138.40 1002.58 141.49 C 997.94 144.82 990.80 142.54 988.47 137.45 C 985.86 132.44 988.35 125.73 993.47 123.46 Z" />
<path fill="#c5e093" opacity="1.00" d=" M 781.08 156.01 C 781.70 148.62 780.54 141.09 782.39 133.83 C 782.89 140.88 782.58 147.95 782.65 155.01 C 782.61 161.43 783.19 167.95 781.66 174.26 C 779.28 168.41 780.84 162.08 781.08 156.01 Z" />
<path fill="#c5e093" opacity="1.00" d=" M 889.47 135.67 C 891.99 138.87 891.85 143.14 892.18 146.99 C 892.57 155.41 894.09 163.77 893.73 172.22 C 892.65 166.15 892.13 160.01 891.27 153.92 C 890.48 147.86 889.38 141.81 889.47 135.67 Z" />
<path fill="#c5e093" opacity="1.00" d=" M 837.17 189.00 C 837.24 174.95 835.73 160.92 836.42 146.87 C 837.53 160.23 839.23 173.54 839.76 186.95 C 839.81 192.14 840.31 197.67 837.70 202.39 C 837.21 197.94 837.17 193.47 837.17 189.00 Z" />
<path fill="#c5e093" opacity="1.00" d=" M 671.37 148.32 C 677.18 146.68 682.57 151.50 684.13 156.81 C 685.95 162.93 684.63 170.36 679.81 174.79 C 675.53 178.56 668.32 177.54 664.67 173.37 C 658.05 165.71 661.12 151.08 671.37 148.32 Z" />
<path fill="#c5e093" opacity="1.00" d=" M 378.40 151.36 C 382.94 150.14 388.27 152.77 389.65 157.36 C 390.94 161.78 390.34 167.47 386.23 170.23 C 382.51 173.10 376.07 172.58 374.04 167.93 C 371.50 162.54 372.24 153.87 378.40 151.36 Z" />
<path fill="#c5e093" opacity="1.00" d=" M 502.29 154.25 C 502.69 154.24 503.50 154.22 503.91 154.21 C 503.97 169.59 501.22 184.81 500.41 200.15 C 500.36 184.85 501.83 169.56 502.29 154.25 Z" />
<path fill="#c5e093" opacity="1.00" d=" M 950.03 166.24 C 953.51 170.32 957.00 174.41 960.41 178.56 C 955.91 188.63 954.24 199.60 951.01 210.08 C 950.16 213.77 948.55 217.63 949.46 221.45 C 951.17 224.69 954.51 226.63 957.62 228.35 C 966.01 232.61 975.36 234.95 984.77 235.17 C 974.26 242.01 967.68 252.94 961.54 263.54 C 958.31 256.50 956.71 248.82 953.00 242.00 C 948.46 233.30 941.27 225.62 932.06 221.90 C 925.70 219.61 918.91 218.23 912.13 218.50 C 901.55 219.04 891.95 223.84 882.50 228.16 C 880.13 224.79 878.08 220.78 874.27 218.84 C 870.36 217.27 866.04 217.97 861.99 218.42 C 852.39 219.99 842.64 220.09 833.00 221.36 C 828.13 222.06 822.20 221.51 818.69 225.66 C 814.65 230.07 815.91 236.55 815.80 242.01 C 816.01 263.49 815.89 284.99 815.51 306.47 C 808.71 304.25 803.08 299.75 797.33 295.68 C 794.76 293.83 792.50 291.61 790.31 289.34 C 795.27 284.27 803.64 281.18 804.61 273.32 C 805.62 266.57 800.29 261.35 796.64 256.37 C 783.18 239.16 765.06 224.07 743.00 220.22 C 732.31 219.07 721.15 219.06 710.94 222.82 C 704.76 224.87 699.02 228.03 693.58 231.57 C 680.11 239.81 670.85 253.53 664.93 267.90 C 665.93 251.58 663.34 235.28 664.08 218.95 C 674.82 221.77 686.58 223.81 697.15 219.18 C 712.55 213.26 722.43 198.42 726.75 183.03 C 729.09 190.41 731.09 198.07 735.46 204.58 C 739.56 210.83 745.61 216.09 752.93 218.06 C 759.25 219.82 765.88 219.08 772.27 218.19 C 780.49 216.93 788.75 218.75 797.00 218.41 C 810.53 218.10 824.07 218.78 837.59 218.05 C 837.85 215.43 838.11 212.81 838.39 210.19 C 859.41 207.35 880.53 205.30 901.56 202.54 C 918.53 200.08 935.60 198.32 952.52 195.46 C 952.26 185.68 950.89 175.97 950.03 166.24 Z" />
<path fill="#c5e093" opacity="1.00" d=" M 381.73 217.45 C 386.73 216.66 391.33 213.52 396.54 214.26 C 408.68 215.69 420.90 214.58 433.07 214.56 C 439.14 214.55 444.34 218.49 450.39 218.67 C 458.58 219.15 466.78 219.64 474.97 220.27 C 501.50 222.56 528.16 222.76 554.74 224.33 C 565.14 225.15 575.57 225.74 586.00 225.97 C 594.13 226.11 602.24 226.94 610.38 226.64 C 610.88 225.08 611.40 223.52 611.92 221.97 C 611.89 229.86 611.59 237.77 612.06 245.66 C 607.87 240.97 601.43 243.14 596.07 243.54 C 584.38 244.31 572.65 243.77 560.96 244.34 C 555.74 244.41 552.16 248.63 548.67 251.91 C 541.87 249.75 535.29 246.54 528.09 246.02 C 520.93 245.41 513.49 245.87 506.83 248.80 C 494.76 254.03 483.56 262.12 476.48 273.38 C 474.40 276.73 472.11 279.95 469.49 282.90 C 466.29 276.03 464.38 268.44 459.63 262.40 C 456.27 258.15 452.43 254.13 447.71 251.41 C 442.76 248.76 437.23 247.22 431.66 246.62 C 420.18 246.06 408.75 249.48 399.00 255.45 C 396.22 252.18 393.72 248.23 389.61 246.52 C 385.40 245.29 380.97 246.32 376.73 246.84 C 366.51 248.25 356.19 248.75 345.97 250.10 C 340.67 250.69 336.25 255.57 336.20 260.91 C 335.73 273.81 337.48 286.83 335.32 299.65 C 331.22 293.15 327.77 286.19 322.65 280.38 C 311.84 266.99 295.65 258.76 278.82 255.96 C 280.95 255.35 283.04 254.60 285.14 253.88 C 284.10 242.77 281.09 231.97 280.07 220.86 C 286.09 226.21 291.07 232.58 296.52 238.48 C 303.36 245.97 309.84 253.77 316.91 261.04 C 331.05 249.84 344.93 238.30 358.87 226.85 C 362.38 224.12 365.38 220.56 369.49 218.70 C 373.48 217.62 377.68 218.17 381.73 217.45 Z" />
<path fill="#c5e093" opacity="1.00" d=" M 111.23 256.07 C 121.96 257.95 133.44 261.62 139.95 270.99 C 144.62 278.98 144.82 288.92 142.80 297.75 C 139.53 311.89 126.54 322.70 112.24 324.24 C 111.76 308.81 112.00 293.38 111.70 277.96 C 111.41 270.67 110.67 263.37 111.23 256.07 Z" />
<path fill="#c5e093" opacity="1.00" d=" M 718.05 287.85 C 718.42 281.16 724.20 276.19 730.23 274.35 C 732.99 273.46 735.31 275.42 737.39 276.92 C 733.34 280.43 729.03 283.64 724.50 286.51 C 722.63 287.90 720.24 287.79 718.05 287.85 Z" />
<path fill="#c5e093" opacity="1.00" d=" M 1025.47 282.63 C 1030.25 281.20 1035.86 281.99 1039.65 285.40 C 1046.06 291.00 1047.68 301.09 1043.48 308.48 C 1040.14 315.44 1030.82 317.91 1024.02 314.90 C 1019.80 312.75 1016.03 309.20 1014.52 304.63 C 1011.83 295.85 1016.56 285.49 1025.47 282.63 Z" />
<path fill="#c5e093" opacity="1.00" d=" M 523.60 302.63 C 532.87 299.98 541.89 308.98 542.19 317.94 C 542.77 324.50 539.97 331.64 534.09 334.99 C 530.37 336.62 526.04 336.52 522.13 335.71 C 514.99 333.43 509.95 326.05 510.72 318.53 C 510.90 311.09 516.44 304.45 523.60 302.63 Z" />
<path fill="#c5e093" opacity="1.00" d=" M 267.49 314.64 C 275.80 311.35 285.10 318.46 286.59 326.70 C 289.34 336.63 282.23 349.34 271.26 349.43 C 260.69 348.03 254.39 335.26 257.50 325.56 C 258.56 320.41 262.84 316.65 267.49 314.64 Z" />
<path fill="#c5e093" opacity="1.00" d=" M 615.58 326.73 C 628.03 326.54 640.50 326.03 652.90 324.94 C 647.99 326.94 643.16 329.16 638.21 331.09 C 630.96 333.83 623.90 337.33 616.13 338.41 C 615.85 334.52 615.61 330.63 615.58 326.73 Z" />
<path fill="#c5e093" opacity="1.00" d=" M 962.42 332.88 C 966.19 338.68 969.77 344.60 972.89 350.77 C 969.36 353.90 965.85 357.06 962.24 360.09 C 961.52 351.03 961.95 341.94 962.42 332.88 Z" />
<path fill="#c5e093" opacity="1.00" d=" M 472.45 358.76 C 475.69 362.78 479.15 366.88 480.76 371.87 C 478.72 375.75 475.06 379.24 470.52 379.71 C 470.99 372.71 471.24 365.68 472.45 358.76 Z" />
<path fill="#c5e093" opacity="1.00" d=" M 1008.86 384.74 C 1016.90 383.41 1024.98 381.45 1033.19 382.45 C 1026.94 388.77 1016.15 389.86 1008.86 384.74 Z" />
<path fill="#c5e093" opacity="1.00" d=" M 517.61 407.35 C 519.26 406.11 520.88 404.51 523.07 404.42 C 528.81 403.89 534.60 404.16 540.34 404.53 C 538.41 406.57 535.98 408.16 533.07 408.19 C 527.92 408.91 522.69 408.30 517.61 407.35 Z" />
</g>
<g id="#7cbc6dff">
<path fill="#7cbc6d" opacity="1.00" d=" M 1019.98 76.13 C 1032.03 76.08 1044.04 74.53 1056.10 74.99 C 1056.73 89.65 1055.87 104.33 1056.09 119.00 C 1055.95 138.67 1055.94 158.33 1055.85 178.00 C 1055.70 187.34 1055.18 196.92 1051.72 205.71 C 1048.88 213.15 1044.07 219.84 1037.85 224.82 C 1036.12 226.08 1034.16 227.48 1031.93 227.28 C 1028.59 226.32 1025.24 225.36 1021.83 224.74 C 1031.31 221.16 1039.72 214.12 1043.57 204.59 C 1049.36 191.49 1047.25 176.89 1047.89 163.01 C 1047.87 136.35 1048.68 109.69 1048.23 83.03 C 1035.84 83.05 1023.48 84.10 1011.10 84.43 C 1011.30 88.18 1011.53 91.92 1011.81 95.66 C 1005.51 90.47 998.20 85.87 989.85 85.24 C 977.82 84.01 966.37 90.94 959.23 100.21 C 949.37 112.82 947.15 130.08 950.63 145.40 C 953.38 157.31 959.89 168.92 970.39 175.61 C 979.06 181.29 990.51 181.92 1000.03 178.05 C 1003.82 176.51 1007.44 174.56 1011.16 172.82 C 1010.99 177.90 1010.90 183.40 1007.73 187.67 C 1004.38 192.76 998.13 195.50 992.10 194.80 C 982.88 193.93 974.01 191.06 965.01 189.04 C 962.20 198.89 959.51 208.79 957.21 218.77 C 968.93 226.42 983.36 228.40 997.09 228.17 C 992.76 230.09 988.68 232.52 984.77 235.17 C 975.36 234.95 966.01 232.61 957.62 228.35 C 954.51 226.63 951.17 224.69 949.46 221.45 C 948.55 217.63 950.16 213.77 951.01 210.08 C 954.24 199.60 955.91 188.63 960.41 178.56 C 957.00 174.41 953.51 170.32 950.03 166.24 C 950.89 175.97 952.26 185.68 952.52 195.46 C 935.60 198.32 918.53 200.08 901.56 202.54 C 880.53 205.30 859.41 207.35 838.39 210.19 C 838.11 212.81 837.85 215.43 837.59 218.05 C 824.07 218.78 810.53 218.10 797.00 218.41 C 788.75 218.75 780.49 216.93 772.27 218.19 C 765.88 219.08 759.25 219.82 752.93 218.06 C 745.61 216.09 739.56 210.83 735.46 204.58 C 731.09 198.07 729.09 190.41 726.75 183.03 C 722.43 198.42 712.55 213.26 697.15 219.18 C 686.58 223.81 674.82 221.77 664.08 218.95 C 663.34 235.28 665.93 251.58 664.93 267.90 C 663.26 273.01 661.33 278.03 659.90 283.21 C 658.45 257.55 658.20 231.84 656.95 206.16 C 663.27 211.33 670.87 215.20 679.16 215.60 C 692.18 216.96 704.92 209.79 712.30 199.31 C 721.51 186.49 723.74 169.95 722.50 154.55 C 721.37 140.58 715.99 126.17 704.75 117.23 C 697.01 110.81 686.29 107.83 676.44 110.38 C 669.33 111.89 663.44 116.41 658.02 121.00 C 657.85 117.70 657.66 114.41 657.51 111.11 C 644.68 112.11 631.88 113.42 619.10 114.93 C 618.37 139.94 618.91 164.96 618.35 189.97 C 618.20 233.42 617.33 276.89 617.73 320.34 C 628.86 320.44 639.93 319.05 651.06 319.03 C 654.70 319.08 658.46 318.61 661.48 316.39 C 661.72 317.82 661.93 319.26 662.17 320.70 C 659.12 322.20 656.07 323.71 652.90 324.94 C 640.50 326.03 628.03 326.54 615.58 326.73 C 615.68 304.16 615.40 281.57 616.17 259.00 C 616.47 254.21 615.80 249.07 612.06 245.66 C 611.59 237.77 611.89 229.86 611.92 221.97 C 611.40 223.52 610.88 225.08 610.38 226.64 C 602.24 226.94 594.13 226.11 586.00 225.97 C 575.57 225.74 565.14 225.15 554.74 224.33 C 528.16 222.76 501.50 222.56 474.97 220.27 C 466.78 219.64 458.58 219.15 450.39 218.67 C 444.34 218.49 439.14 214.55 433.07 214.56 C 420.90 214.58 408.68 215.69 396.54 214.26 C 391.33 213.52 386.73 216.66 381.73 217.45 C 377.68 218.17 373.48 217.62 369.49 218.70 C 365.38 220.56 362.38 224.12 358.87 226.85 C 344.93 238.30 331.05 249.84 316.91 261.04 C 309.84 253.77 303.36 245.97 296.52 238.48 C 291.07 232.58 286.09 226.21 280.07 220.86 C 281.09 231.97 284.10 242.77 285.14 253.88 C 283.04 254.60 280.95 255.35 278.82 255.96 C 271.95 255.89 265.00 255.75 258.24 257.19 C 252.75 258.27 247.52 260.33 242.28 262.26 C 236.39 263.81 230.29 264.43 224.25 265.05 C 217.22 215.94 210.23 166.83 203.25 117.72 C 202.14 108.27 199.75 98.94 199.94 89.38 C 218.29 86.07 236.42 81.68 254.78 78.39 C 256.64 89.75 258.68 101.08 260.65 112.42 C 262.07 119.82 262.92 127.35 264.98 134.62 C 269.40 124.36 272.34 113.55 276.06 103.03 C 279.17 94.34 281.87 85.50 285.12 76.86 C 287.55 77.42 289.99 77.98 292.40 78.66 C 308.64 83.64 324.92 88.47 341.18 93.39 C 339.27 99.63 335.80 105.20 333.18 111.14 C 324.85 129.06 316.01 146.74 307.61 164.64 C 306.03 167.96 304.09 171.18 303.25 174.79 C 305.32 177.09 308.05 178.65 310.62 180.33 C 318.37 185.21 325.79 190.64 333.78 195.15 C 330.21 188.37 326.44 181.53 325.01 173.93 C 322.40 160.19 324.23 145.42 331.21 133.19 C 339.23 119.22 352.93 108.26 368.76 104.73 C 378.58 102.58 388.52 105.26 397.71 108.66 C 398.04 106.92 398.38 105.19 398.72 103.45 C 406.52 101.79 414.52 101.50 422.41 100.47 C 429.91 99.83 437.36 98.22 444.92 98.71 C 445.22 125.84 444.96 152.98 445.39 180.11 C 447.15 170.75 447.59 161.22 448.63 151.77 C 450.32 136.86 451.44 121.89 453.26 106.99 C 458.47 106.21 463.74 105.97 469.00 106.00 C 480.60 106.04 492.15 104.60 503.75 105.08 C 503.94 107.00 504.14 108.92 504.34 110.85 C 514.08 107.15 525.08 105.34 535.16 108.81 C 540.44 110.48 544.64 114.23 548.82 117.71 C 559.47 110.12 573.16 108.92 585.81 110.25 C 592.58 111.04 598.75 114.69 603.36 119.62 C 607.06 123.56 609.33 128.53 612.08 133.13 C 613.13 125.17 612.29 117.12 613.04 109.13 C 629.50 107.42 645.96 105.67 662.46 104.25 C 663.29 105.44 664.13 106.64 664.98 107.84 C 673.83 103.71 684.00 101.61 693.56 104.51 C 709.46 108.83 720.88 122.79 725.87 138.02 C 726.13 130.67 726.18 123.31 726.15 115.96 C 726.30 113.20 726.00 110.16 727.53 107.72 C 729.62 107.11 731.79 106.92 733.96 106.70 C 749.78 105.46 765.55 103.48 781.39 102.37 C 782.02 103.89 782.66 105.42 783.31 106.94 C 795.56 106.06 807.79 104.81 820.05 103.95 C 823.40 103.71 826.75 103.27 830.07 102.69 C 830.60 101.07 831.05 99.40 831.83 97.87 C 834.58 96.58 837.64 96.19 840.59 95.53 C 853.69 92.92 866.62 89.48 879.79 87.18 C 880.53 89.42 881.32 91.64 882.07 93.88 C 889.67 88.58 898.66 85.15 907.99 85.03 C 917.36 84.77 926.46 89.47 932.31 96.68 C 937.13 102.20 940.22 108.95 942.59 115.84 C 946.31 104.45 952.43 93.51 962.03 86.08 C 971.23 79.10 983.47 75.27 994.90 78.14 C 997.61 78.69 1000.59 79.99 1003.20 78.35 C 1008.39 75.70 1014.37 76.54 1019.98 76.13 M 289.12 84.26 C 280.19 109.46 272.04 134.93 263.25 160.18 C 261.21 153.86 260.57 147.22 259.33 140.72 C 256.15 122.43 252.84 104.17 249.76 85.87 C 235.21 88.21 220.87 91.66 206.42 94.52 C 206.92 100.43 207.83 106.29 208.73 112.16 C 215.60 160.78 222.66 209.39 229.45 258.03 C 237.06 257.13 244.54 255.39 252.09 254.08 C 260.81 252.34 269.62 251.12 278.27 249.04 C 275.84 232.61 272.16 216.38 270.02 199.91 C 273.95 203.69 277.46 207.88 281.07 211.95 C 291.48 223.55 301.90 235.12 312.22 246.80 C 313.98 248.75 315.86 250.60 317.76 252.43 C 325.69 246.16 333.45 239.67 341.28 233.27 C 346.83 228.60 352.70 224.31 357.97 219.31 C 337.02 205.14 315.78 191.38 294.94 177.06 C 307.27 150.34 320.55 124.06 332.81 97.31 C 318.21 93.08 303.73 88.45 289.12 84.26 M 886.79 100.75 C 882.48 104.30 879.96 109.36 877.27 114.13 C 876.18 108.20 875.16 102.27 873.95 96.37 C 862.33 98.94 850.68 101.42 839.11 104.19 C 840.50 115.94 842.29 127.64 843.57 139.40 C 845.60 159.83 848.71 180.33 847.28 200.91 C 861.12 199.45 874.99 197.97 888.76 195.93 C 886.45 177.35 883.53 158.84 881.54 140.21 C 881.37 138.03 881.16 135.80 881.72 133.66 C 883.24 128.72 889.78 125.84 894.28 128.68 C 897.23 130.75 898.47 134.38 899.19 137.77 C 900.18 143.14 900.20 148.63 900.72 154.06 C 901.88 167.37 903.22 180.66 904.42 193.97 C 917.66 192.62 930.80 190.46 944.01 188.82 C 942.96 172.14 940.78 155.56 939.30 138.91 C 938.42 127.09 935.12 115.29 928.83 105.18 C 924.72 98.70 917.91 93.41 910.02 93.03 C 901.70 92.64 893.18 95.39 886.79 100.75 M 406.15 110.23 C 405.99 114.42 405.90 118.60 405.85 122.79 C 396.05 116.10 384.35 110.63 372.18 112.29 C 359.96 114.32 349.09 121.90 341.67 131.66 C 327.81 149.82 328.49 177.92 344.24 194.75 C 352.21 203.21 363.13 209.87 374.99 210.23 C 384.74 210.45 393.33 204.96 400.22 198.56 C 400.88 201.34 401.52 204.13 402.14 206.92 C 413.80 207.10 425.45 206.52 437.11 206.70 C 437.24 204.14 437.36 201.57 437.39 199.01 C 437.28 168.32 437.36 137.63 436.96 106.95 C 426.67 107.91 416.42 109.14 406.15 110.23 M 734.36 114.97 C 733.97 132.98 734.01 150.99 733.90 169.00 C 733.75 179.79 736.28 190.77 742.00 199.99 C 745.31 205.39 750.62 209.98 757.07 210.89 C 767.85 212.21 778.99 209.73 788.12 203.80 C 788.23 206.09 788.34 208.39 788.45 210.68 C 802.20 210.62 815.96 210.62 829.71 210.68 C 829.82 200.10 829.31 189.53 828.92 178.97 C 828.21 156.38 827.66 133.79 827.62 111.19 C 815.13 112.12 802.66 113.41 790.16 114.30 C 790.39 132.52 790.41 150.75 790.41 168.98 C 790.30 171.79 790.39 174.73 789.34 177.40 C 787.13 181.92 780.34 184.09 776.35 180.62 C 773.06 177.76 772.68 173.07 772.57 169.01 C 772.58 160.99 773.29 153.00 773.33 144.98 C 773.37 133.64 774.43 122.32 774.19 110.97 C 760.90 112.19 747.58 113.21 734.36 114.97 M 460.44 114.37 C 457.27 146.48 453.93 178.59 450.84 210.70 C 464.48 211.32 478.07 213.04 491.73 213.21 C 492.16 194.47 493.26 175.77 494.21 157.05 C 494.50 153.97 494.87 150.50 497.35 148.33 C 500.02 145.85 504.31 144.21 507.72 146.19 C 510.67 148.03 511.67 151.70 511.95 154.96 C 512.39 161.60 511.17 168.20 510.65 174.80 C 509.50 188.05 508.42 201.30 507.26 214.55 C 520.70 214.75 534.14 215.37 547.58 215.82 C 548.89 195.53 550.83 175.28 551.98 154.98 C 552.00 150.20 557.61 147.71 561.78 148.28 C 565.88 148.86 567.73 153.32 568.04 156.99 C 568.68 164.33 567.17 171.62 566.70 178.93 C 565.70 191.65 564.27 204.34 563.76 217.09 C 576.94 217.36 590.09 218.53 603.28 218.45 C 605.37 202.88 605.83 187.14 607.36 171.51 C 608.70 158.37 607.90 144.64 602.50 132.43 C 599.33 125.28 592.89 119.20 584.93 118.15 C 576.75 117.10 568.21 117.63 560.40 120.41 C 555.04 122.28 550.92 126.30 546.66 129.87 C 543.52 124.38 539.58 118.78 533.36 116.58 C 524.78 113.55 514.90 114.68 506.92 118.92 C 501.92 121.50 498.46 126.06 494.95 130.29 C 495.06 124.57 495.44 118.86 495.87 113.16 C 484.05 113.18 472.24 113.75 460.44 114.37 M 781.08 156.01 C 780.84 162.08 779.28 168.41 781.66 174.26 C 783.19 167.95 782.61 161.43 782.65 155.01 C 782.58 147.95 782.89 140.88 782.39 133.83 C 780.54 141.09 781.70 148.62 781.08 156.01 M 889.47 135.67 C 889.38 141.81 890.48 147.86 891.27 153.92 C 892.13 160.01 892.65 166.15 893.73 172.22 C 894.09 163.77 892.57 155.41 892.18 146.99 C 891.85 143.14 891.99 138.87 889.47 135.67 M 837.17 189.00 C 837.17 193.47 837.21 197.94 837.70 202.39 C 840.31 197.67 839.81 192.14 839.76 186.95 C 839.23 173.54 837.53 160.23 836.42 146.87 C 835.73 160.92 837.24 174.95 837.17 189.00 M 502.29 154.25 C 501.83 169.56 500.36 184.85 500.41 200.15 C 501.22 184.81 503.97 169.59 503.91 154.21 C 503.50 154.22 502.69 154.24 502.29 154.25 Z" />
<path fill="#7cbc6d" opacity="1.00" d=" M 992.36 115.31 C 998.47 113.42 1005.69 115.22 1009.76 120.28 C 1017.01 128.48 1015.53 143.23 1005.75 148.82 C 996.51 154.45 983.34 148.77 980.37 138.57 C 977.15 129.24 982.83 118.04 992.36 115.31 M 993.47 123.46 C 988.35 125.73 985.86 132.44 988.47 137.45 C 990.80 142.54 997.94 144.82 1002.58 141.49 C 1006.33 138.40 1006.97 132.78 1005.58 128.37 C 1004.03 123.53 997.93 121.33 993.47 123.46 Z" />
<path fill="#7cbc6d" opacity="1.00" d=" M 669.34 142.37 C 674.69 140.90 680.79 142.28 684.76 146.23 C 693.54 154.65 693.15 170.22 684.78 178.78 C 677.41 186.45 663.17 184.01 657.99 174.98 C 651.09 163.77 655.94 145.98 669.34 142.37 M 671.37 148.32 C 661.12 151.08 658.05 165.71 664.67 173.37 C 668.32 177.54 675.53 178.56 679.81 174.79 C 684.63 170.36 685.95 162.93 684.13 156.81 C 682.57 151.50 677.18 146.68 671.37 148.32 Z" />
<path fill="#7cbc6d" opacity="1.00" d=" M 377.37 143.43 C 384.27 142.26 392.01 145.19 395.66 151.35 C 400.35 159.22 398.87 170.69 391.39 176.35 C 385.52 180.70 376.25 181.67 370.66 176.35 C 363.26 169.64 362.83 157.42 368.41 149.45 C 370.52 146.44 373.69 144.06 377.37 143.43 M 378.40 151.36 C 372.24 153.87 371.50 162.54 374.04 167.93 C 376.07 172.58 382.51 173.10 386.23 170.23 C 390.34 167.47 390.94 161.78 389.65 157.36 C 388.27 152.77 382.94 150.14 378.40 151.36 Z" />
</g>
<g id="#0b3e1fff">
<path fill="#0b3e1f" opacity="1.00" d=" M 1011.10 84.43 C 1023.48 84.10 1035.84 83.05 1048.23 83.03 C 1048.68 109.69 1047.87 136.35 1047.89 163.01 C 1047.25 176.89 1049.36 191.49 1043.57 204.59 C 1039.72 214.12 1031.31 221.16 1021.83 224.74 C 1013.43 224.07 1004.95 225.11 997.09 228.17 C 983.36 228.40 968.93 226.42 957.21 218.77 C 959.51 208.79 962.20 198.89 965.01 189.04 C 974.01 191.06 982.88 193.93 992.10 194.80 C 998.13 195.50 1004.38 192.76 1007.73 187.67 C 1010.90 183.40 1010.99 177.90 1011.16 172.82 C 1007.44 174.56 1003.82 176.51 1000.03 178.05 C 990.51 181.92 979.06 181.29 970.39 175.61 C 959.89 168.92 953.38 157.31 950.63 145.40 C 947.15 130.08 949.37 112.82 959.23 100.21 C 966.37 90.94 977.82 84.01 989.85 85.24 C 998.20 85.87 1005.51 90.47 1011.81 95.66 C 1011.53 91.92 1011.30 88.18 1011.10 84.43 M 992.36 115.31 C 982.83 118.04 977.15 129.24 980.37 138.57 C 983.34 148.77 996.51 154.45 1005.75 148.82 C 1015.53 143.23 1017.01 128.48 1009.76 120.28 C 1005.69 115.22 998.47 113.42 992.36 115.31 Z" />
<path fill="#0b3e1f" opacity="1.00" d=" M 289.12 84.26 C 303.73 88.45 318.21 93.08 332.81 97.31 C 320.55 124.06 307.27 150.34 294.94 177.06 C 315.78 191.38 337.02 205.14 357.97 219.31 C 352.70 224.31 346.83 228.60 341.28 233.27 C 333.45 239.67 325.69 246.16 317.76 252.43 C 315.86 250.60 313.98 248.75 312.22 246.80 C 301.90 235.12 291.48 223.55 281.07 211.95 C 277.46 207.88 273.95 203.69 270.02 199.91 C 272.16 216.38 275.84 232.61 278.27 249.04 C 269.62 251.12 260.81 252.34 252.09 254.08 C 244.54 255.39 237.06 257.13 229.45 258.03 C 222.66 209.39 215.60 160.78 208.73 112.16 C 207.83 106.29 206.92 100.43 206.42 94.52 C 220.87 91.66 235.21 88.21 249.76 85.87 C 252.84 104.17 256.15 122.43 259.33 140.72 C 260.57 147.22 261.21 153.86 263.25 160.18 C 272.04 134.93 280.19 109.46 289.12 84.26 Z" />
<path fill="#0b3e1f" opacity="1.00" d=" M 886.79 100.75 C 893.18 95.39 901.70 92.64 910.02 93.03 C 917.91 93.41 924.72 98.70 928.83 105.18 C 935.12 115.29 938.42 127.09 939.30 138.91 C 940.78 155.56 942.96 172.14 944.01 188.82 C 930.80 190.46 917.66 192.62 904.42 193.97 C 903.22 180.66 901.88 167.37 900.72 154.06 C 900.20 148.63 900.18 143.14 899.19 137.77 C 898.47 134.38 897.23 130.75 894.28 128.68 C 889.78 125.84 883.24 128.72 881.72 133.66 C 881.16 135.80 881.37 138.03 881.54 140.21 C 883.53 158.84 886.45 177.35 888.76 195.93 C 874.99 197.97 861.12 199.45 847.28 200.91 C 848.71 180.33 845.60 159.83 843.57 139.40 C 842.29 127.64 840.50 115.94 839.11 104.19 C 850.68 101.42 862.33 98.94 873.95 96.37 C 875.16 102.27 876.18 108.20 877.27 114.13 C 879.96 109.36 882.48 104.30 886.79 100.75 Z" />
<path fill="#0b3e1f" opacity="1.00" d=" M 406.15 110.23 C 416.42 109.14 426.67 107.91 436.96 106.95 C 437.36 137.63 437.28 168.32 437.39 199.01 C 437.36 201.57 437.24 204.14 437.11 206.70 C 425.45 206.52 413.80 207.10 402.14 206.92 C 401.52 204.13 400.88 201.34 400.22 198.56 C 393.33 204.96 384.74 210.45 374.99 210.23 C 363.13 209.87 352.21 203.21 344.24 194.75 C 328.49 177.92 327.81 149.82 341.67 131.66 C 349.09 121.90 359.96 114.32 372.18 112.29 C 384.35 110.63 396.05 116.10 405.85 122.79 C 405.90 118.60 405.99 114.42 406.15 110.23 M 377.37 143.43 C 373.69 144.06 370.52 146.44 368.41 149.45 C 362.83 157.42 363.26 169.64 370.66 176.35 C 376.25 181.67 385.52 180.70 391.39 176.35 C 398.87 170.69 400.35 159.22 395.66 151.35 C 392.01 145.19 384.27 142.26 377.37 143.43 Z" />
<path fill="#0b3e1f" opacity="1.00" d=" M 676.44 110.38 C 686.29 107.83 697.01 110.81 704.75 117.23 C 715.99 126.17 721.37 140.58 722.50 154.55 C 723.74 169.95 721.51 186.49 712.30 199.31 C 704.92 209.79 692.18 216.96 679.16 215.60 C 670.87 215.20 663.27 211.33 656.95 206.16 C 658.20 231.84 658.45 257.55 659.90 283.21 C 659.09 294.29 658.87 305.51 661.48 316.39 C 658.46 318.61 654.70 319.08 651.06 319.03 C 639.93 319.05 628.86 320.44 617.73 320.34 C 617.33 276.89 618.20 233.42 618.35 189.97 C 618.91 164.96 618.37 139.94 619.10 114.93 C 631.88 113.42 644.68 112.11 657.51 111.11 C 657.66 114.41 657.85 117.70 658.02 121.00 C 663.44 116.41 669.33 111.89 676.44 110.38 M 669.34 142.37 C 655.94 145.98 651.09 163.77 657.99 174.98 C 663.17 184.01 677.41 186.45 684.78 178.78 C 693.15 170.22 693.54 154.65 684.76 146.23 C 680.79 142.28 674.69 140.90 669.34 142.37 Z" />
<path fill="#0b3e1f" opacity="1.00" d=" M 734.36 114.97 C 747.58 113.21 760.90 112.19 774.19 110.97 C 774.43 122.32 773.37 133.64 773.33 144.98 C 773.29 153.00 772.58 160.99 772.57 169.01 C 772.68 173.07 773.06 177.76 776.35 180.62 C 780.34 184.09 787.13 181.92 789.34 177.40 C 790.39 174.73 790.30 171.79 790.41 168.98 C 790.41 150.75 790.39 132.52 790.16 114.30 C 802.66 113.41 815.13 112.12 827.62 111.19 C 827.66 133.79 828.21 156.38 828.92 178.97 C 829.31 189.53 829.82 200.10 829.71 210.68 C 815.96 210.62 802.20 210.62 788.45 210.68 C 788.34 208.39 788.23 206.09 788.12 203.80 C 778.99 209.73 767.85 212.21 757.07 210.89 C 750.62 209.98 745.31 205.39 742.00 199.99 C 736.28 190.77 733.75 179.79 733.90 169.00 C 734.01 150.99 733.97 132.98 734.36 114.97 Z" />
<path fill="#0b3e1f" opacity="1.00" d=" M 460.44 114.37 C 472.24 113.75 484.05 113.18 495.87 113.16 C 495.44 118.86 495.06 124.57 494.95 130.29 C 498.46 126.06 501.92 121.50 506.92 118.92 C 514.90 114.68 524.78 113.55 533.36 116.58 C 539.58 118.78 543.52 124.38 546.66 129.87 C 550.92 126.30 555.04 122.28 560.40 120.41 C 568.21 117.63 576.75 117.10 584.93 118.15 C 592.89 119.20 599.33 125.28 602.50 132.43 C 607.90 144.64 608.70 158.37 607.36 171.51 C 605.83 187.14 605.37 202.88 603.28 218.45 C 590.09 218.53 576.94 217.36 563.76 217.09 C 564.27 204.34 565.70 191.65 566.70 178.93 C 567.17 171.62 568.68 164.33 568.04 156.99 C 567.73 153.32 565.88 148.86 561.78 148.28 C 557.61 147.71 552.00 150.20 551.98 154.98 C 550.83 175.28 548.89 195.53 547.58 215.82 C 534.14 215.37 520.70 214.75 507.26 214.55 C 508.42 201.30 509.50 188.05 510.65 174.80 C 511.17 168.20 512.39 161.60 511.95 154.96 C 511.67 151.70 510.67 148.03 507.72 146.19 C 504.31 144.21 500.02 145.85 497.35 148.33 C 494.87 150.50 494.50 153.97 494.21 157.05 C 493.26 175.77 492.16 194.47 491.73 213.21 C 478.07 213.04 464.48 211.32 450.84 210.70 C 453.93 178.59 457.27 146.48 460.44 114.37 Z" />
</g>
<g id="#fde95fff">
<path fill="#fde95f" opacity="1.00" d=" M 50.21 157.14 C 53.64 154.71 58.04 155.44 61.96 155.59 C 69.77 156.23 77.66 155.61 85.42 156.86 C 89.93 157.63 94.52 157.71 99.08 158.05 C 103.19 158.08 106.21 161.58 107.95 164.96 C 109.47 168.98 109.49 173.36 110.07 177.57 C 120.27 179.99 130.84 180.82 140.79 184.26 C 148.49 186.90 155.95 190.20 163.24 193.80 C 187.63 206.49 206.37 230.11 211.80 257.22 C 214.18 265.80 214.29 274.71 214.45 283.55 C 219.81 282.02 222.20 276.59 226.28 273.31 C 231.26 269.17 236.36 264.97 242.28 262.26 C 247.52 260.33 252.75 258.27 258.24 257.19 C 265.00 255.75 271.95 255.89 278.82 255.96 C 295.65 258.76 311.84 266.99 322.65 280.38 C 327.77 286.19 331.22 293.15 335.32 299.65 C 337.48 286.83 335.73 273.81 336.20 260.91 C 336.25 255.57 340.67 250.69 345.97 250.10 C 356.19 248.75 366.51 248.25 376.73 246.84 C 380.97 246.32 385.40 245.29 389.61 246.52 C 393.72 248.23 396.22 252.18 399.00 255.45 C 408.75 249.48 420.18 246.06 431.66 246.62 C 437.23 247.22 442.76 248.76 447.71 251.41 C 452.43 254.13 456.27 258.15 459.63 262.40 C 464.38 268.44 466.29 276.03 469.49 282.90 C 472.11 279.95 474.40 276.73 476.48 273.38 C 483.56 262.12 494.76 254.03 506.83 248.80 C 513.49 245.87 520.93 245.41 528.09 246.02 C 535.29 246.54 541.87 249.75 548.67 251.91 C 552.16 248.63 555.74 244.41 560.96 244.34 C 572.65 243.77 584.38 244.31 596.07 243.54 C 601.43 243.14 607.87 240.97 612.06 245.66 C 615.80 249.07 616.47 254.21 616.17 259.00 C 615.40 281.57 615.68 304.16 615.58 326.73 C 615.61 330.63 615.85 334.52 616.13 338.41 C 623.90 337.33 630.96 333.83 638.21 331.09 C 643.16 329.16 647.99 326.94 652.90 324.94 C 656.07 323.71 659.12 322.20 662.17 320.70 C 661.93 319.26 661.72 317.82 661.48 316.39 C 658.87 305.51 659.09 294.29 659.90 283.21 C 661.33 278.03 663.26 273.01 664.93 267.90 C 670.85 253.53 680.11 239.81 693.58 231.57 C 699.02 228.03 704.76 224.87 710.94 222.82 C 721.15 219.06 732.31 219.07 743.00 220.22 C 765.06 224.07 783.18 239.16 796.64 256.37 C 800.29 261.35 805.62 266.57 804.61 273.32 C 803.64 281.18 795.27 284.27 790.31 289.34 C 792.50 291.61 794.76 293.83 797.33 295.68 C 803.08 299.75 808.71 304.25 815.51 306.47 C 815.89 284.99 816.01 263.49 815.80 242.01 C 815.91 236.55 814.65 230.07 818.69 225.66 C 822.20 221.51 828.13 222.06 833.00 221.36 C 842.64 220.09 852.39 219.99 861.99 218.42 C 866.04 217.97 870.36 217.27 874.27 218.84 C 878.08 220.78 880.13 224.79 882.50 228.16 C 891.95 223.84 901.55 219.04 912.13 218.50 C 918.91 218.23 925.70 219.61 932.06 221.90 C 941.27 225.62 948.46 233.30 953.00 242.00 C 956.71 248.82 958.31 256.50 961.54 263.54 C 967.68 252.94 974.26 242.01 984.77 235.17 C 988.68 232.52 992.76 230.09 997.09 228.17 C 1004.95 225.11 1013.43 224.07 1021.83 224.74 C 1025.24 225.36 1028.59 226.32 1031.93 227.28 C 1034.87 228.17 1037.65 229.76 1040.78 230.01 C 1043.89 228.10 1045.87 223.94 1049.92 223.95 C 1054.57 223.66 1059.26 223.72 1063.88 222.97 C 1071.19 221.83 1078.62 222.32 1085.99 222.00 C 1090.35 221.90 1094.72 221.55 1099.08 221.94 C 1103.18 222.06 1106.32 225.61 1107.64 229.24 C 1108.68 234.42 1107.92 239.75 1108.05 245.00 C 1108.18 253.48 1107.53 261.98 1108.42 270.44 C 1112.58 266.87 1115.62 262.27 1118.70 257.79 C 1119.91 256.36 1120.88 254.20 1123.02 254.08 C 1126.88 253.52 1130.79 254.02 1134.66 254.30 C 1139.80 264.37 1146.04 273.85 1150.80 284.11 C 1152.65 287.79 1152.04 292.26 1149.50 295.46 C 1138.51 310.27 1126.28 324.22 1112.46 336.46 C 1109.55 339.00 1106.30 341.82 1106.05 345.97 C 1103.65 364.62 1099.79 383.39 1091.30 400.31 C 1086.26 410.65 1079.75 420.47 1070.88 427.94 C 1059.15 439.00 1043.69 445.43 1027.81 447.45 C 1012.40 449.13 996.32 448.14 981.88 442.11 C 969.24 436.89 958.06 427.34 952.58 414.63 C 949.61 406.08 948.12 396.84 949.54 387.84 C 950.22 382.49 952.35 377.50 954.08 372.43 C 936.37 372.20 918.65 372.38 900.95 372.42 C 895.31 372.86 889.51 367.92 889.95 362.09 C 890.04 345.72 890.84 329.37 891.73 313.03 C 891.79 302.07 892.85 291.09 891.57 280.17 C 889.16 280.17 886.76 280.17 884.37 280.16 C 883.52 290.75 883.77 301.39 883.69 312.00 C 883.92 328.00 883.80 344.01 884.07 360.02 C 884.03 363.27 884.22 367.18 881.30 369.35 C 876.11 374.38 868.46 372.48 862.02 372.38 C 848.33 372.26 834.63 372.40 820.94 372.39 C 815.33 372.98 811.65 367.50 810.32 362.76 C 810.26 356.33 813.47 350.10 812.28 343.61 C 810.49 342.40 809.12 344.90 807.76 345.76 C 799.87 353.59 791.41 360.85 782.32 367.26 C 768.92 375.79 753.26 380.67 737.38 381.14 C 731.80 380.66 726.21 380.15 720.69 379.24 C 711.36 377.05 702.52 372.83 694.84 367.11 C 691.18 364.47 688.37 360.76 684.46 358.46 C 682.22 357.13 679.72 358.74 677.58 359.53 C 670.74 362.82 664.02 366.38 656.94 369.17 C 644.05 375.32 630.84 380.81 617.28 385.31 C 615.07 386.23 612.43 386.79 610.87 388.74 C 609.17 392.41 608.60 396.47 607.39 400.31 C 602.81 416.56 594.85 431.94 583.63 444.60 C 572.66 457.03 557.14 464.82 540.98 467.88 C 530.80 470.34 520.17 470.36 509.87 468.67 C 494.83 466.90 479.62 461.19 469.27 449.74 C 460.49 440.24 456.03 427.16 456.63 414.29 C 457.71 405.16 462.04 396.94 465.10 388.40 C 452.40 388.21 439.70 388.45 427.00 388.31 C 422.19 388.14 417.35 389.29 412.57 388.56 C 408.32 386.83 403.76 383.04 404.15 377.98 C 404.12 363.63 405.93 349.35 405.90 335.01 C 405.86 324.72 406.69 314.42 405.75 304.15 C 403.93 304.16 402.11 304.17 400.29 304.17 C 399.52 324.77 400.17 345.39 400.06 366.00 C 399.87 371.49 400.96 377.17 399.43 382.52 C 397.03 386.44 393.05 390.28 388.08 389.75 C 374.70 389.59 361.33 389.66 347.95 389.69 C 344.41 389.49 340.52 389.66 337.42 387.69 C 334.74 385.11 332.53 381.71 331.99 377.98 C 332.06 373.56 333.34 369.27 333.85 364.89 C 331.66 367.42 329.71 370.15 328.01 373.03 C 323.95 380.03 317.89 385.58 311.79 390.79 C 288.89 409.87 252.58 409.24 229.84 390.18 C 216.04 379.41 206.60 363.32 203.38 346.16 C 202.82 346.12 201.69 346.05 201.13 346.01 C 196.95 351.89 193.59 358.34 188.81 363.78 C 181.99 372.09 173.23 378.50 164.28 384.31 C 152.33 392.04 138.57 396.23 124.92 399.81 C 116.76 401.85 108.37 402.65 100.07 403.86 C 85.73 404.63 71.35 404.32 56.99 404.16 C 54.20 404.03 51.29 404.18 48.62 403.23 C 44.30 400.86 41.33 396.07 41.75 391.06 C 42.06 368.70 41.95 346.33 42.37 323.97 C 43.25 310.98 42.53 297.95 43.54 284.97 C 44.20 249.31 43.55 213.62 44.91 177.97 C 45.03 173.05 44.59 168.09 45.37 163.21 C 45.80 160.50 48.07 158.61 50.21 157.14 M 53.13 162.94 C 51.96 240.40 50.66 317.86 49.60 395.31 C 58.67 396.65 67.85 396.67 77.00 396.71 C 99.33 396.84 121.95 393.97 142.87 385.86 C 157.77 380.14 171.60 371.20 182.17 359.16 C 195.51 344.08 202.86 324.53 205.46 304.76 C 208.21 283.61 207.31 261.31 198.37 241.63 C 190.46 223.77 175.84 209.37 158.63 200.37 C 141.04 191.01 121.17 186.62 101.37 185.57 C 101.37 179.07 101.25 172.57 101.02 166.07 C 85.05 165.16 69.12 163.56 53.13 162.94 M 823.77 230.15 C 823.53 253.42 824.00 276.71 823.31 299.98 C 822.54 321.62 822.33 343.48 817.84 364.75 C 837.21 364.94 856.59 365.23 875.97 365.22 C 875.64 339.15 875.35 313.08 875.66 287.02 C 875.85 283.33 875.62 279.17 878.16 276.17 C 882.09 271.24 890.32 269.09 895.32 273.65 C 900.19 278.33 900.54 285.65 900.45 291.99 C 899.22 316.38 898.51 340.80 897.91 365.21 C 916.43 365.14 934.95 365.12 953.46 364.60 C 953.68 346.06 954.64 327.55 954.89 309.02 C 954.98 296.39 956.42 283.62 953.94 271.13 C 951.86 259.68 948.68 247.93 941.35 238.64 C 936.42 232.31 929.01 227.90 921.00 226.99 C 908.41 225.60 894.94 228.81 885.30 237.28 C 880.76 241.14 877.63 246.27 874.42 251.21 C 873.82 242.72 873.45 234.23 872.94 225.74 C 856.53 227.01 840.16 228.69 823.77 230.15 M 698.67 237.67 C 684.13 246.89 674.11 262.27 669.78 278.77 C 665.58 293.92 666.96 310.21 672.60 324.79 C 651.49 334.69 629.89 343.70 607.55 350.44 C 607.07 317.24 607.81 284.04 607.97 250.84 C 590.86 251.43 573.76 252.37 556.65 253.03 C 556.87 258.07 557.21 263.10 557.35 268.15 C 553.29 264.99 549.29 261.66 544.69 259.30 C 534.67 254.04 522.54 252.06 511.63 255.64 C 497.96 260.05 486.65 270.39 479.87 282.93 C 470.86 299.40 469.52 319.29 473.70 337.38 C 476.93 351.49 484.30 364.65 495.10 374.35 C 489.00 377.58 482.86 380.99 478.06 386.05 C 467.91 396.15 462.73 411.30 465.57 425.45 C 467.63 436.13 474.49 445.57 483.59 451.41 C 496.63 459.86 512.72 462.01 527.96 461.34 C 544.54 460.74 561.21 454.83 573.45 443.42 C 587.12 431.01 595.31 413.75 600.25 396.22 C 601.62 391.72 602.14 386.99 603.68 382.55 C 606.13 380.35 609.64 379.89 612.64 378.69 C 634.23 371.16 655.18 361.85 675.59 351.57 C 678.87 350.09 681.90 347.60 685.57 347.24 C 687.23 348.64 688.60 350.35 690.07 351.96 C 700.26 363.40 714.68 371.13 729.98 372.69 C 744.46 374.24 759.21 370.81 771.98 363.96 C 783.64 357.47 793.95 348.76 803.14 339.13 C 808.60 333.30 814.05 327.27 817.62 320.04 C 805.93 311.30 794.01 302.87 781.98 294.61 C 774.48 308.88 762.59 321.40 747.42 327.38 C 740.45 330.22 732.37 328.27 727.22 322.88 C 734.76 317.44 742.86 312.85 750.47 307.51 C 766.76 296.55 782.63 284.96 797.99 272.73 C 791.14 261.12 782.12 250.81 771.63 242.37 C 760.43 233.44 746.56 227.01 732.00 227.27 C 720.12 227.12 708.59 231.36 698.67 237.67 M 1048.71 231.76 C 1049.05 236.87 1049.40 241.97 1049.71 247.08 C 1045.23 243.55 1040.85 239.80 1035.65 237.37 C 1025.76 232.52 1013.98 230.90 1003.41 234.44 C 989.31 239.08 977.84 250.08 971.17 263.18 C 962.67 279.91 961.64 299.80 966.26 317.80 C 969.63 331.09 976.72 343.40 986.82 352.72 C 975.75 357.52 965.92 365.82 960.96 376.99 C 955.03 389.56 955.51 405.16 963.05 416.96 C 970.68 429.17 984.41 436.18 998.25 438.69 C 1014.73 441.52 1032.30 440.59 1047.73 433.76 C 1060.79 428.12 1071.51 417.96 1079.00 405.97 C 1090.96 386.79 1096.20 364.21 1098.34 341.93 C 1098.44 336.42 1104.18 334.00 1107.45 330.43 C 1120.93 317.72 1133.45 303.92 1144.37 288.94 C 1139.16 278.95 1133.72 269.07 1128.05 259.33 C 1118.95 270.68 1110.50 282.71 1099.79 292.64 C 1099.24 271.64 1100.25 250.62 1100.13 229.61 C 1082.98 229.99 1065.84 230.94 1048.71 231.76 M 344.65 257.95 C 344.51 283.91 344.93 309.88 343.74 335.82 C 343.03 350.88 342.56 366.08 339.10 380.81 C 356.81 380.94 374.51 381.24 392.22 381.20 C 392.20 356.12 391.31 331.02 392.20 305.95 C 392.08 297.77 403.23 292.08 409.60 297.37 C 414.50 301.74 414.83 308.93 414.66 315.04 C 413.51 337.06 412.90 359.11 412.29 381.15 C 429.14 381.33 445.99 380.88 462.84 380.80 C 463.61 362.55 463.90 344.27 464.42 326.01 C 464.52 317.27 465.30 308.47 464.15 299.77 C 462.76 289.96 460.51 280.06 455.71 271.30 C 451.57 263.58 444.44 257.08 435.64 255.43 C 425.73 253.67 415.15 255.40 406.41 260.41 C 399.59 264.15 394.87 270.55 390.99 277.11 C 390.37 269.42 390.00 261.72 389.62 254.02 C 374.60 254.90 359.64 256.65 344.65 257.95 M 263.35 264.40 C 247.93 266.41 233.80 275.11 224.28 287.29 C 207.26 308.64 204.98 340.12 218.02 363.99 C 225.11 377.14 236.78 387.94 250.84 393.21 C 264.19 398.34 279.50 398.17 292.73 392.73 C 305.92 387.40 316.93 377.22 323.80 364.82 C 333.06 348.41 335.16 328.22 329.79 310.20 C 324.81 292.90 312.63 277.56 296.34 269.68 C 286.18 264.69 274.56 262.88 263.35 264.40 M 962.42 332.88 C 961.95 341.94 961.52 351.03 962.24 360.09 C 965.85 357.06 969.36 353.90 972.89 350.77 C 969.77 344.60 966.19 338.68 962.42 332.88 M 472.45 358.76 C 471.24 365.68 470.99 372.71 470.52 379.71 C 475.06 379.24 478.72 375.75 480.76 371.87 C 479.15 366.88 475.69 362.78 472.45 358.76 Z" />
<path fill="#fde95f" opacity="1.00" d=" M 102.79 247.91 C 114.88 248.09 127.50 250.37 137.60 257.39 C 145.46 262.80 150.51 271.79 151.51 281.24 C 152.83 293.47 150.34 306.68 142.31 316.32 C 133.10 327.52 118.52 332.78 104.41 333.93 C 103.97 305.25 103.14 276.59 102.79 247.91 M 111.23 256.07 C 110.67 263.37 111.41 270.67 111.70 277.96 C 112.00 293.38 111.76 308.81 112.24 324.24 C 126.54 322.70 139.53 311.89 142.80 297.75 C 144.82 288.92 144.62 278.98 139.95 270.99 C 133.44 261.62 121.96 257.95 111.23 256.07 Z" />
<path fill="#fde95f" opacity="1.00" d=" M 710.85 284.00 C 712.11 275.37 719.89 268.85 728.16 267.20 C 736.89 265.65 745.55 270.16 751.34 276.47 C 739.58 286.02 727.17 294.82 714.04 302.36 C 711.67 296.58 709.78 290.30 710.85 284.00 M 718.05 287.85 C 720.24 287.79 722.63 287.90 724.50 286.51 C 729.03 283.64 733.34 280.43 737.39 276.92 C 735.31 275.42 732.99 273.46 730.23 274.35 C 724.20 276.19 718.42 281.16 718.05 287.85 Z" />
<path fill="#fde95f" opacity="1.00" d=" M 1026.32 274.37 C 1034.21 272.79 1042.72 276.01 1047.71 282.29 C 1057.26 293.61 1055.25 313.41 1042.04 321.05 C 1029.80 328.51 1012.33 321.87 1007.42 308.60 C 1001.36 294.55 1011.26 276.78 1026.32 274.37 M 1025.47 282.63 C 1016.56 285.49 1011.83 295.85 1014.52 304.63 C 1016.03 309.20 1019.80 312.75 1024.02 314.90 C 1030.82 317.91 1040.14 315.44 1043.48 308.48 C 1047.68 301.09 1046.06 291.00 1039.65 285.40 C 1035.86 281.99 1030.25 281.20 1025.47 282.63 Z" />
<path fill="#fde95f" opacity="1.00" d=" M 523.41 294.54 C 530.25 293.38 537.56 295.60 542.52 300.48 C 553.34 310.76 553.03 330.73 540.89 339.87 C 530.76 347.79 514.78 344.84 507.38 334.58 C 499.37 324.45 501.42 308.44 511.31 300.29 C 514.72 297.33 518.93 295.24 523.41 294.54 M 523.60 302.63 C 516.44 304.45 510.90 311.09 510.72 318.53 C 509.95 326.05 514.99 333.43 522.13 335.71 C 526.04 336.52 530.37 336.62 534.09 334.99 C 539.97 331.64 542.77 324.50 542.19 317.94 C 541.89 308.98 532.87 299.98 523.60 302.63 Z" />
<path fill="#fde95f" opacity="1.00" d=" M 266.37 306.47 C 273.62 304.42 281.70 306.74 287.03 311.99 C 295.82 320.42 297.51 334.92 291.35 345.34 C 287.47 352.19 280.02 357.21 272.00 357.14 C 262.94 357.29 254.65 351.03 251.19 342.84 C 244.74 329.44 251.45 310.50 266.37 306.47 M 267.49 314.64 C 262.84 316.65 258.56 320.41 257.50 325.56 C 254.39 335.26 260.69 348.03 271.26 349.43 C 282.23 349.34 289.34 336.63 286.59 326.70 C 285.10 318.46 275.80 311.35 267.49 314.64 Z" />
<path fill="#fde95f" opacity="1.00" d=" M 1024.04 374.97 C 1032.22 374.47 1040.06 371.94 1047.93 369.84 C 1046.53 377.47 1043.54 385.34 1037.17 390.20 C 1029.91 395.82 1020.03 396.20 1011.33 394.66 C 1007.01 393.74 1002.11 392.01 1000.08 387.75 C 998.47 384.04 1001.09 380.08 1004.32 378.31 C 1010.24 374.69 1017.43 375.53 1024.04 374.97 M 1008.86 384.74 C 1016.15 389.86 1026.94 388.77 1033.19 382.45 C 1024.98 381.45 1016.90 383.41 1008.86 384.74 Z" />
<path fill="#fde95f" opacity="1.00" d=" M 529.05 396.56 C 537.81 396.55 546.47 395.13 555.16 394.16 C 553.44 401.31 549.98 408.51 543.57 412.57 C 536.39 417.23 527.26 417.31 519.09 415.94 C 514.96 415.10 510.40 413.48 508.20 409.62 C 506.48 406.52 507.96 402.63 510.68 400.66 C 515.84 396.54 522.80 396.68 529.05 396.56 M 517.61 407.35 C 522.69 408.30 527.92 408.91 533.07 408.19 C 535.98 408.16 538.41 406.57 540.34 404.53 C 534.60 404.16 528.81 403.89 523.07 404.42 C 520.88 404.51 519.26 406.11 517.61 407.35 Z" />
</g>
<g id="#2d1014ff">
<path fill="#2d1014" opacity="1.00" d=" M 53.13 162.94 C 69.12 163.56 85.05 165.16 101.02 166.07 C 101.25 172.57 101.37 179.07 101.37 185.57 C 121.17 186.62 141.04 191.01 158.63 200.37 C 175.84 209.37 190.46 223.77 198.37 241.63 C 207.31 261.31 208.21 283.61 205.46 304.76 C 202.86 324.53 195.51 344.08 182.17 359.16 C 171.60 371.20 157.77 380.14 142.87 385.86 C 121.95 393.97 99.33 396.84 77.00 396.71 C 67.85 396.67 58.67 396.65 49.60 395.31 C 50.66 317.86 51.96 240.40 53.13 162.94 M 102.79 247.91 C 103.14 276.59 103.97 305.25 104.41 333.93 C 118.52 332.78 133.10 327.52 142.31 316.32 C 150.34 306.68 152.83 293.47 151.51 281.24 C 150.51 271.79 145.46 262.80 137.60 257.39 C 127.50 250.37 114.88 248.09 102.79 247.91 Z" />
<path fill="#2d1014" opacity="1.00" d=" M 823.77 230.15 C 840.16 228.69 856.53 227.01 872.94 225.74 C 873.45 234.23 873.82 242.72 874.42 251.21 C 877.63 246.27 880.76 241.14 885.30 237.28 C 894.94 228.81 908.41 225.60 921.00 226.99 C 929.01 227.90 936.42 232.31 941.35 238.64 C 948.68 247.93 951.86 259.68 953.94 271.13 C 956.42 283.62 954.98 296.39 954.89 309.02 C 954.64 327.55 953.68 346.06 953.46 364.60 C 934.95 365.12 916.43 365.14 897.91 365.21 C 898.51 340.80 899.22 316.38 900.45 291.99 C 900.54 285.65 900.19 278.33 895.32 273.65 C 890.32 269.09 882.09 271.24 878.16 276.17 C 875.62 279.17 875.85 283.33 875.66 287.02 C 875.35 313.08 875.64 339.15 875.97 365.22 C 856.59 365.23 837.21 364.94 817.84 364.75 C 822.33 343.48 822.54 321.62 823.31 299.98 C 824.00 276.71 823.53 253.42 823.77 230.15 Z" />
<path fill="#2d1014" opacity="1.00" d=" M 698.67 237.67 C 708.59 231.36 720.12 227.12 732.00 227.27 C 746.56 227.01 760.43 233.44 771.63 242.37 C 782.12 250.81 791.14 261.12 797.99 272.73 C 782.63 284.96 766.76 296.55 750.47 307.51 C 742.86 312.85 734.76 317.44 727.22 322.88 C 732.37 328.27 740.45 330.22 747.42 327.38 C 762.59 321.40 774.48 308.88 781.98 294.61 C 794.01 302.87 805.93 311.30 817.62 320.04 C 814.05 327.27 808.60 333.30 803.14 339.13 C 793.95 348.76 783.64 357.47 771.98 363.96 C 759.21 370.81 744.46 374.24 729.98 372.69 C 714.68 371.13 700.26 363.40 690.07 351.96 C 688.60 350.35 687.23 348.64 685.57 347.24 C 681.90 347.60 678.87 350.09 675.59 351.57 C 655.18 361.85 634.23 371.16 612.64 378.69 C 609.64 379.89 606.13 380.35 603.68 382.55 C 602.14 386.99 601.62 391.72 600.25 396.22 C 595.31 413.75 587.12 431.01 573.45 443.42 C 561.21 454.83 544.54 460.74 527.96 461.34 C 512.72 462.01 496.63 459.86 483.59 451.41 C 474.49 445.57 467.63 436.13 465.57 425.45 C 462.73 411.30 467.91 396.15 478.06 386.05 C 482.86 380.99 489.00 377.58 495.10 374.35 C 484.30 364.65 476.93 351.49 473.70 337.38 C 469.52 319.29 470.86 299.40 479.87 282.93 C 486.65 270.39 497.96 260.05 511.63 255.64 C 522.54 252.06 534.67 254.04 544.69 259.30 C 549.29 261.66 553.29 264.99 557.35 268.15 C 557.21 263.10 556.87 258.07 556.65 253.03 C 573.76 252.37 590.86 251.43 607.97 250.84 C 607.81 284.04 607.07 317.24 607.55 350.44 C 629.89 343.70 651.49 334.69 672.60 324.79 C 666.96 310.21 665.58 293.92 669.78 278.77 C 674.11 262.27 684.13 246.89 698.67 237.67 M 710.85 284.00 C 709.78 290.30 711.67 296.58 714.04 302.36 C 727.17 294.82 739.58 286.02 751.34 276.47 C 745.55 270.16 736.89 265.65 728.16 267.20 C 719.89 268.85 712.11 275.37 710.85 284.00 M 523.41 294.54 C 518.93 295.24 514.72 297.33 511.31 300.29 C 501.42 308.44 499.37 324.45 507.38 334.58 C 514.78 344.84 530.76 347.79 540.89 339.87 C 553.03 330.73 553.34 310.76 542.52 300.48 C 537.56 295.60 530.25 293.38 523.41 294.54 M 529.05 396.56 C 522.80 396.68 515.84 396.54 510.68 400.66 C 507.96 402.63 506.48 406.52 508.20 409.62 C 510.40 413.48 514.96 415.10 519.09 415.94 C 527.26 417.31 536.39 417.23 543.57 412.57 C 549.98 408.51 553.44 401.31 555.16 394.16 C 546.47 395.13 537.81 396.55 529.05 396.56 Z" />
<path fill="#2d1014" opacity="1.00" d=" M 1048.71 231.76 C 1065.84 230.94 1082.98 229.99 1100.13 229.61 C 1100.25 250.62 1099.24 271.64 1099.79 292.64 C 1110.50 282.71 1118.95 270.68 1128.05 259.33 C 1133.72 269.07 1139.16 278.95 1144.37 288.94 C 1133.45 303.92 1120.93 317.72 1107.45 330.43 C 1104.18 334.00 1098.44 336.42 1098.34 341.93 C 1096.20 364.21 1090.96 386.79 1079.00 405.97 C 1071.51 417.96 1060.79 428.12 1047.73 433.76 C 1032.30 440.59 1014.73 441.52 998.25 438.69 C 984.41 436.18 970.68 429.17 963.05 416.96 C 955.51 405.16 955.03 389.56 960.96 376.99 C 965.92 365.82 975.75 357.52 986.82 352.72 C 976.72 343.40 969.63 331.09 966.26 317.80 C 961.64 299.80 962.67 279.91 971.17 263.18 C 977.84 250.08 989.31 239.08 1003.41 234.44 C 1013.98 230.90 1025.76 232.52 1035.65 237.37 C 1040.85 239.80 1045.23 243.55 1049.71 247.08 C 1049.40 241.97 1049.05 236.87 1048.71 231.76 M 1026.32 274.37 C 1011.26 276.78 1001.36 294.55 1007.42 308.60 C 1012.33 321.87 1029.80 328.51 1042.04 321.05 C 1055.25 313.41 1057.26 293.61 1047.71 282.29 C 1042.72 276.01 1034.21 272.79 1026.32 274.37 M 1024.04 374.97 C 1017.43 375.53 1010.24 374.69 1004.32 378.31 C 1001.09 380.08 998.47 384.04 1000.08 387.75 C 1002.11 392.01 1007.01 393.74 1011.33 394.66 C 1020.03 396.20 1029.91 395.82 1037.17 390.20 C 1043.54 385.34 1046.53 377.47 1047.93 369.84 C 1040.06 371.94 1032.22 374.47 1024.04 374.97 Z" />
<path fill="#2d1014" opacity="1.00" d=" M 344.65 257.95 C 359.64 256.65 374.60 254.90 389.62 254.02 C 390.00 261.72 390.37 269.42 390.99 277.11 C 394.87 270.55 399.59 264.15 406.41 260.41 C 415.15 255.40 425.73 253.67 435.64 255.43 C 444.44 257.08 451.57 263.58 455.71 271.30 C 460.51 280.06 462.76 289.96 464.15 299.77 C 465.30 308.47 464.52 317.27 464.42 326.01 C 463.90 344.27 463.61 362.55 462.84 380.80 C 445.99 380.88 429.14 381.33 412.29 381.15 C 412.90 359.11 413.51 337.06 414.66 315.04 C 414.83 308.93 414.50 301.74 409.60 297.37 C 403.23 292.08 392.08 297.77 392.20 305.95 C 391.31 331.02 392.20 356.12 392.22 381.20 C 374.51 381.24 356.81 380.94 339.10 380.81 C 342.56 366.08 343.03 350.88 343.74 335.82 C 344.93 309.88 344.51 283.91 344.65 257.95 Z" />
<path fill="#2d1014" opacity="1.00" d=" M 263.35 264.40 C 274.56 262.88 286.18 264.69 296.34 269.68 C 312.63 277.56 324.81 292.90 329.79 310.20 C 335.16 328.22 333.06 348.41 323.80 364.82 C 316.93 377.22 305.92 387.40 292.73 392.73 C 279.50 398.17 264.19 398.34 250.84 393.21 C 236.78 387.94 225.11 377.14 218.02 363.99 C 204.98 340.12 207.26 308.64 224.28 287.29 C 233.80 275.11 247.93 266.41 263.35 264.40 M 266.37 306.47 C 251.45 310.50 244.74 329.44 251.19 342.84 C 254.65 351.03 262.94 357.29 272.00 357.14 C 280.02 357.21 287.47 352.19 291.35 345.34 C 297.51 334.92 295.82 320.42 287.03 311.99 C 281.70 306.74 273.62 304.42 266.37 306.47 Z" />
</g>
</svg>
